# xmcd
#
# Track frame offsets:
#  150
#  3707
#  8807
#  9647
#  11390
#  12297
#  13707
#  18275
#  18877
#  33812
#  34480
#  35075
#  35607
#  36570
#  37360
#  42347
#  52485
#  53137
#  53682
#  54662
#  62302
#  72322
#  73000
#  73792
#  74452
#  74872
#  75360
#  78615
#  79102
#  79560
#  80177
#  80857
#  92885
#  93792
#  95402
#  106255
#  118165
#  128652
#  139135
#  148812
#
# Disc length: 2015 seconds
#
# Revision: 0
# Processed by: cddbd v1.4PL0 Copyright (c) Steve Scherf et al.
# Submitted via: AltoMP3_Maker 3.0
#
DISCID=3607dd28
DTITLE=Albert Lee - Advanced Country Guitar
DYEAR=1900
DGENRE=
TTITLE0=That's Alright Mama 1
TTITLE1=That's Alright Mama 2
TTITLE2=Example 1
TTITLE3=Example 2
TTITLE4=Example 3
TTITLE5=Example 4
TTITLE6=Let It Be
TTITLE7=Example 5
TTITLE8=Forty Miles Of Bad Road
TTITLE9=Example 6
TTITLE10=Example 7
TTITLE11=Example 8
TTITLE12=Example 9
TTITLE13=Example 10
TTITLE14=Example 11
TTITLE15=Example 12
TTITLE16=Example 13
TTITLE17=Example 14
TTITLE18=Example 15
TTITLE19=Example 16
TTITLE20=Fun Ranch Boogie
TTITLE21=Example 17
TTITLE22=Example 18
TTITLE23=Example 19
TTITLE24=Example 20
TTITLE25=Example 21
TTITLE26=Example 22
TTITLE27=Example 23
TTITLE28=Example 24
TTITLE29=Example 25
TTITLE30=Example 26
TTITLE31=Tiger Rag
TTITLE32=Example 27
TTITLE33=Example 28
TTITLE34=Boogie Woogie
TTITLE35=Don't Get Above Your Raisin
TTITLE36=Cocaine
TTITLE37=All I Have To Do Is Dream
TTITLE38=Come Up And See About Me 1
TTITLE39=Come Up And See About Me 2
EXTD=
EXTT0=
EXTT1=
EXTT2=
EXTT3=
EXTT4=
EXTT5=
EXTT6=
EXTT7=
EXTT8=
EXTT9=
EXTT10=
EXTT11=
EXTT12=
EXTT13=
EXTT14=
EXTT15=
EXTT16=
EXTT17=
EXTT18=
EXTT19=
EXTT20=
EXTT21=
EXTT22=
EXTT23=
EXTT24=
EXTT25=
EXTT26=
EXTT27=
EXTT28=
EXTT29=
EXTT30=
EXTT31=
EXTT32=
EXTT33=
EXTT34=
EXTT35=
EXTT36=
EXTT37=
EXTT38=
EXTT39=
PLAYORDER=
